<svg width="20" height="20" viewBox="0 0 20 20" fill="none" xmlns="http://www.w3.org/2000/svg">
<g id="7395529_search_find_magnifier_icon 1">
<path id="Vector" fill-rule="evenodd" clip-rule="evenodd" d="M14.8936 14.0096C15.9997 12.703 16.6667 11.0127 16.6667 9.16663C16.6667 5.02449 13.3088 1.66663 9.16666 1.66663C5.02452 1.66663 1.66666 5.02449 1.66666 9.16663C1.66666 13.3088 5.02452 16.6666 9.16666 16.6666C11.0127 16.6666 12.703 15.9996 14.0097 14.8935L16.2247 17.1085C16.4688 17.3526 16.8645 17.3526 17.1086 17.1085C17.3527 16.8645 17.3527 16.4688 17.1086 16.2247L14.8936 14.0096ZM15.4167 9.16663C15.4167 12.6184 12.6184 15.4166 9.16666 15.4166C5.71487 15.4166 2.91666 12.6184 2.91666 9.16663C2.91666 5.71484 5.71487 2.91663 9.16666 2.91663C12.6184 2.91663 15.4167 5.71484 15.4167 9.16663Z" fill="#2C2347"/>
</g>
</svg>
