<svg width="20" height="20" viewBox="0 0 20 20" fill="none" xmlns="http://www.w3.org/2000/svg">
<g id="Group">
<path id="Vector" d="M18.56 9.43991L13.52 4.39991C13.2 4.07991 12.72 4.07991 12.4 4.39991C12.08 4.71991 12.08 5.19991 12.4 5.51991L16.08 9.19991H2.00001C1.52001 9.19991 1.20001 9.51991 1.20001 9.99991C1.20001 10.4799 1.52001 10.7999 2.00001 10.7999H16.08L12.4 14.4799C12.08 14.7999 12.08 15.2799 12.4 15.5999C12.56 15.7599 12.8 15.8399 12.96 15.8399C13.12 15.8399 13.36 15.7599 13.52 15.5999L18.56 10.5599C18.72 10.3999 18.8 10.2399 18.8 9.99991C18.8 9.75991 18.72 9.59991 18.56 9.43991Z" fill="white"/>
</g>
</svg>
