<svg width="22" height="22" viewBox="0 0 22 22" fill="none" xmlns="http://www.w3.org/2000/svg">
<g id="MiMedia-icons-24pt">
<g id="icon24pt_other_videos">
<path id="Fill-2" fill-rule="evenodd" clip-rule="evenodd" d="M11.0006 0C4.93471 0 0 4.93499 0 11C0 17.0663 4.93471 22 11.0006 22C17.0653 22 22 17.0663 22 11C22 4.93499 17.0653 0 11.0006 0ZM11.0006 20.5C5.76124 20.5 1.5 16.2375 1.5 10.9994C1.5 5.76124 5.76124 1.5 11.0006 1.5C16.2388 1.5 20.5 5.76124 20.5 10.9994C20.5 16.2375 16.2388 20.5 11.0006 20.5ZM14.6984 10.3955L9.98282 7.11175C9.77888 6.97129 9.53263 6.96303 9.32218 7.08815C9.11716 7.20972 9 7.43989 9 7.71727V14.2824C9 14.5609 9.11716 14.7899 9.32327 14.9127C9.40029 14.9587 9.48924 15 9.61833 15C9.74417 15 9.86784 14.961 9.97306 14.8879L14.693 11.6053C14.885 11.4719 15 11.2453 15 10.9998C15 10.7519 14.8872 10.5253 14.6984 10.3955Z" fill="white"/>
</g>
</g>
</svg>
