<svg width="20" height="20" viewBox="0 0 20 20" fill="none" xmlns="http://www.w3.org/2000/svg">
<g id="Group">
<path id="Vector" d="M1.43999 9.43991L6.47999 4.39991C6.79999 4.07991 7.27999 4.07991 7.59999 4.39991C7.91999 4.71991 7.91999 5.19991 7.59999 5.51991L3.91999 9.19991H18C18.48 9.19991 18.8 9.51991 18.8 9.99991C18.8 10.4799 18.48 10.7999 18 10.7999H3.91999L7.59999 14.4799C7.91999 14.7999 7.91999 15.2799 7.59999 15.5999C7.43999 15.7599 7.19999 15.8399 7.03999 15.8399C6.87999 15.8399 6.63999 15.7599 6.47999 15.5999L1.43999 10.5599C1.27999 10.3999 1.19999 10.2399 1.19999 9.99991C1.19999 9.75991 1.27999 9.59991 1.43999 9.43991Z" fill="white"/>
</g>
</svg>
